<?xml version="1.0" encoding="utf-8"?>
<!-- Generator: Adobe Illustrator 27.1.0, SVG Export Plug-In . SVG Version: 6.00 Build 0)  -->
<svg version="1.1" id="Layer_1" xmlns="http://www.w3.org/2000/svg" xmlns:xlink="http://www.w3.org/1999/xlink" x="0px" y="0px"
	 viewBox="0 0 360 360" style="enable-background:new 0 0 360 360;" xml:space="preserve">
<style type="text/css">
	.st0{fill:#FFFFFF;}
	.st1{fill:#2241EC;}
	.st2{fill:#42E800;}
	.st3{fill:#231F20;}
</style>
<path class="st2" d="M201.61,248.95l67.5-38.97l29.31-16.76L28.32,12.54v50.3l190.83,127.72l-54.14,31.26l-0.03-0.02l-29.76,17.22
	l0,0l0,0l0-0.01l-5.18,2.99l0,0l-24.11,13.92l0,0l-35.8,20.67v-74.8l40.28,31.11l39.25-22.71l-87.82-67.12l-33.51-26.27v42.94v10.83
	V312.8c0,0.73,0.06,1.46,0.11,1.83l0,0.02l0.02,0.51l0,0.03l0,0.02l0.03,0.25v0.01v31.99l28.14-15.14c1.04-0.4,2.07-0.85,3.04-1.41
	l0,0c0,0,0,0,0.01,0l102.66-59.27l99.94,75.72h69.41L201.61,248.95z"/>
</svg>
